<svg width="70" height="70" viewBox="0 0 70 70" fill="none" xmlns="http://www.w3.org/2000/svg">
<rect width="70" height="70" rx="35" fill="#EDA92D" fill-opacity="0.4"/>
<rect x="5" y="5" width="60" height="60" rx="30" fill="#EDA92D"/>
<path fill-rule="evenodd" clip-rule="evenodd" d="M42.7642 24.2127C42.8233 24.316 42.9267 24.3898 43.0596 24.3898C46.6051 24.3898 49.5005 27.282 49.5005 30.8235V39.5888C49.5005 43.1303 46.6051 46.0225 43.0596 46.0225H26.396C22.8358 46.0225 19.9551 43.1303 19.9551 39.5888V30.8235C19.9551 27.282 22.8358 24.3898 26.396 24.3898C26.5142 24.3898 26.6324 24.3307 26.6767 24.2127L26.7653 24.0356C26.8162 23.9284 26.8685 23.8183 26.9216 23.7065C27.2995 22.9105 27.7176 22.0299 27.9767 21.5123C28.6562 20.1842 29.8085 19.4464 31.2414 19.4316H38.1994C39.6324 19.4464 40.7994 20.1842 41.4789 21.5123C41.7116 21.9771 42.0662 22.726 42.4078 23.4477C42.4783 23.5965 42.5482 23.7442 42.6164 23.8881L42.7642 24.2127ZM41.6858 29.8791C41.6858 30.6169 42.2767 31.2072 43.0153 31.2072C43.7539 31.2072 44.3596 30.6169 44.3596 29.8791C44.3596 29.1413 43.7539 28.5363 43.0153 28.5363C42.2767 28.5363 41.6858 29.1413 41.6858 29.8791ZM32.1721 32.1664C32.8664 31.4728 33.7676 31.1039 34.7278 31.1039C35.688 31.1039 36.5892 31.4728 37.2687 32.1516C37.9483 32.8304 38.3176 33.7305 38.3176 34.6897C38.3028 36.667 36.7074 38.2755 34.7278 38.2755C33.7676 38.2755 32.8664 37.9066 32.1869 37.2278C31.5074 36.549 31.138 35.6488 31.138 34.6897V34.6749C31.1233 33.7453 31.4926 32.8451 32.1721 32.1664ZM38.8198 38.7919C37.771 39.8396 36.3233 40.4889 34.7278 40.4889C33.1767 40.4889 31.7289 39.8839 30.621 38.7919C29.5278 37.6852 28.9221 36.2391 28.9221 34.6897C28.9074 33.155 29.513 31.7089 30.6062 30.6022C31.7142 29.4955 33.1767 28.8904 34.7278 28.8904C36.2789 28.8904 37.7414 29.4955 38.8346 30.5874C39.9278 31.6942 40.5335 33.155 40.5335 34.6897C40.5187 36.2981 39.8687 37.7442 38.8198 38.7919Z" fill="white"/>
</svg>
