<svg width="24" height="24" viewBox="0 0 24 24" fill="none" xmlns="http://www.w3.org/2000/svg">
<path fill-rule="evenodd" clip-rule="evenodd" d="M17.64 6.35627C17.55 6.35627 17.48 6.30633 17.44 6.2364L17.34 6.01665L17.1987 5.71839C16.9675 5.22991 16.7275 4.72307 16.57 4.40844C16.11 3.50943 15.32 3.00999 14.35 3H9.64C8.67 3.00999 7.89 3.50943 7.43 4.40844C7.25464 4.75877 6.97164 5.35486 6.71583 5.89368L6.61 6.11654L6.55 6.2364C6.52 6.31632 6.44 6.35627 6.36 6.35627C3.95 6.35627 2 8.3141 2 10.7114V16.6448C2 19.0422 3.95 21 6.36 21H17.64C20.04 21 22 19.0422 22 16.6448V10.7114C22 8.3141 20.04 6.35627 17.64 6.35627ZM14.7695 16.1054C14.0595 16.8146 13.0795 17.2541 11.9995 17.2541C10.9495 17.2541 9.96951 16.8446 9.21951 16.1054C8.47951 15.3562 8.06951 14.3773 8.06951 13.3285C8.05951 12.2896 8.46951 11.3107 9.20951 10.5615C9.95951 9.81238 10.9495 9.40283 11.9995 9.40283C13.0495 9.40283 14.0395 9.81238 14.7795 10.5516C15.5195 11.3007 15.9295 12.2896 15.9295 13.3285C15.9195 14.4173 15.4795 15.3962 14.7695 16.1054ZM16.71 10.0722C16.71 10.5716 17.11 10.9712 17.61 10.9712C18.11 10.9712 18.52 10.5716 18.52 10.0722C18.52 9.57275 18.11 9.16321 17.61 9.16321C17.11 9.16321 16.71 9.57275 16.71 10.0722Z" fill="#EDA92D"/>
<path d="M11.9996 10.9012C11.3496 10.9012 10.7396 11.151 10.2696 11.6204C9.80962 12.0799 9.55962 12.6893 9.56962 13.3186V13.3285C9.56962 13.9778 9.81962 14.5871 10.2796 15.0466C10.7396 15.5061 11.3496 15.7559 11.9996 15.7559C13.3396 15.7559 14.4196 14.6671 14.4296 13.3285C14.4296 12.6793 14.1796 12.0699 13.7196 11.6105C13.2596 11.151 12.6496 10.9012 11.9996 10.9012Z" fill="#EDA92D"/>
</svg>
