<svg width="24" height="24" viewBox="0 0 24 24" fill="none" xmlns="http://www.w3.org/2000/svg">
<path d="M12.7168 2C13.4731 2 14.158 2.42007 14.5362 3.04004C14.7201 3.33993 14.8431 3.70976 14.8125 4.09961C14.7921 4.39961 14.8834 4.70047 15.0469 4.98047C15.5682 5.83035 16.7238 6.14989 17.6231 5.66992C18.6347 5.09027 19.9116 5.44004 20.4942 6.42969L21.1787 7.61035C21.7714 8.60033 21.4448 9.87045 20.4229 10.4404C19.5543 10.9505 19.2474 12.0805 19.7686 12.9404C19.9321 13.2103 20.1163 13.4401 20.4024 13.5801C20.7601 13.7701 21.0363 14.0701 21.2305 14.3701C21.6084 14.99 21.5778 15.75 21.21 16.4199L20.4942 17.6201C20.116 18.26 19.4111 18.6601 18.6856 18.6602C18.3281 18.6602 17.9295 18.5602 17.6026 18.3604C17.3369 18.1904 17.0301 18.1299 16.7032 18.1299C15.6914 18.1299 14.8432 18.9602 14.8125 19.9502C14.8124 21.0999 13.8723 21.9998 12.6973 22H11.3067C10.1214 21.9999 9.18178 21.1 9.18168 19.9502C9.16124 18.9602 8.31256 18.1299 7.30082 18.1299C6.9636 18.1299 6.65688 18.1904 6.4014 18.3604C6.07446 18.5602 5.66574 18.6601 5.3184 18.6602C4.5826 18.6602 3.87719 18.2601 3.49906 17.6201L2.79398 16.4199C2.41594 15.77 2.39546 14.9901 2.77348 14.3701C2.93694 14.0702 3.24351 13.7701 3.59086 13.5801C3.87696 13.4401 4.06168 13.2104 4.23539 12.9404C4.74637 12.0804 4.43901 10.9504 3.57035 10.4404C2.55879 9.87045 2.23221 8.60028 2.81449 7.61035L3.49906 6.42969C4.0918 5.43988 5.35903 5.09012 6.3809 5.66992C7.26989 6.14986 8.42504 5.83024 8.94633 4.98047C9.10984 4.70047 9.20212 4.39961 9.18168 4.09961C9.16133 3.70975 9.2737 3.33994 9.46781 3.04004C9.84595 2.42012 10.5304 2.02 11.2764 2H12.7168ZM12.0118 9.17969C10.4074 9.1797 9.10954 10.4399 9.10941 12.0098C9.10941 13.5798 10.4073 14.8301 12.0118 14.8301C13.6162 14.8301 14.8838 13.5798 14.8838 12.0098C14.8837 10.4399 13.6162 9.17969 12.0118 9.17969Z" fill="#EDA92D"/>
</svg>
